<svg width="30" height="31" viewBox="0 0 30 31" fill="none" xmlns="http://www.w3.org/2000/svg">
<path fill-rule="evenodd" clip-rule="evenodd" d="M13.1104 8.29385C12.9758 7.64756 12.7155 7.58559 12.4792 7.53129C12.2867 7.48534 12.0652 7.44301 11.8436 7.40069C11.6248 7.35888 11.2468 7.37839 10.8745 7.68023C10.5 7.97859 9.47544 8.68167 9.13849 10.4455C8.8021 12.2063 9.66899 14.1389 9.78746 14.4092C9.90923 14.677 11.3294 18.8187 14.4303 20.8999C17.009 22.6276 17.6257 22.5008 18.2442 22.5578C18.866 22.6124 20.3765 22.0664 20.8128 21.2815C21.2485 20.4996 21.3854 19.7829 21.3321 19.6168C21.2788 19.4507 21.0741 19.3199 20.7748 19.0762C20.4782 18.833 19.0104 17.6569 18.7271 17.4774C18.4461 17.3015 18.2358 17.2001 17.946 17.5147C17.6563 17.8293 16.8646 18.5157 16.6248 18.7175C16.3849 18.9193 16.1878 18.9122 15.8879 18.6715C15.5913 18.4283 14.594 17.8465 13.5581 16.383C12.7521 15.2446 12.3084 13.9461 12.1829 13.5492C12.0569 13.1552 12.2664 12.9935 12.4677 12.8454C12.6485 12.7149 12.8814 12.4903 13.0882 12.3128C13.2923 12.1347 13.3752 11.9977 13.533 11.7802C13.6881 11.5622 13.6734 11.3424 13.6257 11.1468C13.578 10.9512 13.2705 9.05816 13.1104 8.29385Z" fill="white"/>
<path d="M4.24914 24.2832L4.72348 24.4413L4.81153 24.1771L4.63334 23.9632L4.24914 24.2832ZM2.55242 29.3733L2.07808 29.2152L1.79882 30.053L2.66089 29.8614L2.55242 29.3733ZM8.93156 27.9558L9.15047 27.5062L8.99352 27.4298L8.8231 27.4677L8.93156 27.9558ZM28.7322 15.2493C28.7322 22.774 22.6322 28.874 15.1076 28.874V29.874C23.1845 29.874 29.7322 23.3263 29.7322 15.2493H28.7322ZM15.1076 1.62466C22.6322 1.62466 28.7322 7.72463 28.7322 15.2493H29.7322C29.7322 7.17234 23.1845 0.624664 15.1076 0.624664V1.62466ZM1.48291 15.2493C1.48291 7.72463 7.58287 1.62466 15.1076 1.62466V0.624664C7.03059 0.624664 0.48291 7.17234 0.48291 15.2493H1.48291ZM4.63334 23.9632C2.66594 21.601 1.48291 18.564 1.48291 15.2493H0.48291C0.48291 18.8064 1.75346 22.068 3.86495 24.6032L4.63334 23.9632ZM3.02676 29.5315L4.72348 24.4413L3.7748 24.1251L2.07808 29.2152L3.02676 29.5315ZM8.8231 27.4677L2.44396 28.8852L2.66089 29.8614L9.04003 28.4438L8.8231 27.4677ZM15.1076 28.874C12.9704 28.874 10.9494 28.3822 9.15047 27.5062L8.71266 28.4053C10.645 29.3463 12.8154 29.874 15.1076 29.874V28.874Z" fill="white"/>
</svg>
