<svg width="30" height="29" viewBox="0 0 30 29" fill="none" xmlns="http://www.w3.org/2000/svg">
<rect x="1.41211" y="0.624664" width="27.2493" height="27.2493" rx="3.5" stroke="white"/>
<path d="M21.6451 16.5638C23.0085 17.8852 23.2925 18.5313 23.3385 18.6108C23.9013 19.5905 22.7144 19.6673 22.7144 19.6673L20.4402 19.7018C20.4402 19.7018 19.9491 19.8024 19.307 19.339C18.4552 18.7299 17.2912 17.1411 16.6671 17.3476C16.0327 17.5568 16.2347 19.2225 16.2347 19.2225C16.2347 19.2225 16.2399 19.4264 16.0966 19.5905C15.938 19.7627 15.631 19.6965 15.631 19.6965H14.9762C14.9762 19.6965 12.5486 19.707 10.5686 17.5515C8.41215 15.2027 6.6087 10.8096 6.6087 10.8096C6.6087 10.8096 6.49871 10.5316 6.61638 10.3833C6.75195 10.2165 7.11776 10.2191 7.11776 10.2191H9.55049C9.55049 10.2191 9.77816 10.2509 9.94188 10.378C10.08 10.4813 10.1542 10.6772 10.1542 10.6772C10.1542 10.6772 10.4484 11.4955 10.9702 12.4382C11.9858 14.2759 12.459 14.6784 12.8044 14.4798C13.3057 14.1912 13.1548 11.8821 13.1548 11.8821C13.1548 11.8821 13.1651 11.0427 12.9016 10.6693C12.6969 10.378 12.3158 10.2933 12.1469 10.2694C12.0088 10.2536 12.2339 9.9199 12.5255 9.77161C12.963 9.54917 13.7381 9.53329 14.6513 9.54388C15.3624 9.55182 15.631 9.54123 15.631 9.54123C16.4701 9.75307 16.1861 10.574 16.1861 12.5335C16.1861 13.1637 16.0761 14.0482 16.511 14.3395C16.6978 14.4692 17.368 14.4878 18.5063 12.462C19.0486 11.5008 19.4758 10.5978 19.4758 10.5978C19.4758 10.5978 19.5679 10.3939 19.7035 10.3092C19.8467 10.2191 20.036 10.2191 20.036 10.2191L22.5967 10.2324C22.5967 10.2324 23.3667 10.1317 23.4894 10.4972C23.6199 10.8785 23.1748 11.5458 22.1311 13.0049C20.4121 15.4013 20.2202 15.1789 21.6451 16.5638Z" fill="white"/>
</svg>
